HIERARCHY
ROOT Hips
{
	OFFSET 0.00000 0.00000 0.00000
	CHANNELS 6 Xposition Yposition Zposition Yrotation Zrotation Xrotation 
	JOINT Lumbar
	{
		OFFSET 0 0 0
		CHANNELS 3 Zrotation Xrotation Yrotation
		JOINT Neck
		{
			OFFSET 0.00 0.2701 0.00
			CHANNELS 3 Zrotation Xrotation Yrotation
			End Site
			{
				OFFSET 0.00 0.1379 0.00
			}
		}
		JOINT RightShoulder
		{
			OFFSET 0.0119 0.2289 0.1181
			CHANNELS 3 Zrotation Xrotation Yrotation
			JOINT RightElbow
			{
				OFFSET 0.00 -0.1475 0.00
				CHANNELS 2 Zrotation Yrotation
				JOINT RightWrist
				{
					OFFSET 0.00 -0.1605 0.00
					CHANNELS 2 Zrotation Xrotation
					End Site
					{
						OFFSET 0.0040 -0.1068 0.0006
					}
				}
			}
		}
		JOINT LeftShoulder
		{
			OFFSET 0.0119 0.2289 -0.1181
			CHANNELS 3 Zrotation Xrotation Yrotation
			JOINT LeftElbow
			{
				OFFSET 0.00 -0.1475 0.00
				CHANNELS 2 Zrotation Yrotation
				JOINT LeftWrist
				{
					OFFSET 0.00 -0.1605 0.00
					CHANNELS 2 Zrotation Xrotation
					End Site
					{
						OFFSET 0.0040 -0.1068 -0.0006
					}
				}
			}
		}
	}
	JOINT RightHip
	{
		OFFSET 0.0316 -0.0424 0.0458
		CHANNELS 3 Zrotation Xrotation Yrotation
		JOINT RightKnee
		{
			OFFSET 0.00 -0.2438 0.00
			CHANNELS 1 Zrotation
			JOINT RightAnkle
			{
				OFFSET 0.00 -0.2449 0.00
				CHANNELS 3 Zrotation Xrotation Yrotation
				End Site
				{
					OFFSET 0.1237 -0.0542 0.0051
				}
			}
		}
	}
	JOINT LeftHip
	{
		OFFSET 0.0316 -0.0424 -0.0458
		CHANNELS 3 Zrotation Xrotation Yrotation
		JOINT LeftKnee
		{
			OFFSET 0.00 -0.2438 0.00
			CHANNELS 1 Zrotation
			JOINT LeftAnkle
			{
				OFFSET 0.00 -0.2449 0.00
				CHANNELS 3 Zrotation Xrotation Yrotation
				End Site
				{
					OFFSET 0.1237 -0.0542 -0.0051
				}
			}
		}
	}
}
MOTION
Frames: 30
Frame Time: 0.02
-0.00512 0.00306 -0.00597 -55.67732 -32.57267 -0.606 40.23245 -0.22466 -10.32811 2.1907 -6.18557 -0.33902 -26.46915 -5.16642 -6.21058 31.02425 80.30358 -2.66732 -1.08434 -14.21223 36.47976 -26.18074 46.12392 -110.55636 -3.70248 9.2239 35.66965 -0.5871 -2.75229 -20.02933 -7.84303 -5.54914 -3.65666 41.72693 3.02305 -2.90548 -23.46921 -7.18665 2.89978 2.12968
-0.00543 0.00249 -0.00297 -56.23692 -32.41455 -0.58479 40.42229 -0.20415 -9.95364 1.63383 -6.03617 -0.33988 -26.01185 -5.43872 -6.07747 30.76393 80.8258 -2.28441 -0.94506 -14.06589 36.10972 -24.15878 44.59682 -103.58974 -5.07678 7.72124 35.34138 -0.52885 -3.16153 -20.09222 -7.77616 -5.49181 -3.62189 41.32554 3.1687 -2.6724 -23.66369 -7.16978 2.94272 2.15611
-0.00574 0.00193 1e-05 -56.79533 -32.25591 -0.56425 40.61037 -0.1831 -9.58006 1.07856 -5.8873 -0.34076 -25.55458 -5.71015 -5.9457 30.50374 81.34453 -1.90415 -0.80614 -13.9215 35.74175 -22.14376 43.07618 -96.65586 -6.44246 6.22406 35.01268 -0.47027 -3.57149 -20.15475 -7.70929 -5.43443 -3.58709 40.92631 3.31456 -2.44029 -23.86166 -7.15306 2.98565 2.18252
-0.00605 0.00137 0.003 -57.35333 -32.09805 -0.54322 40.79942 -0.16255 -9.20672 0.52335 -5.73838 -0.34162 -25.09844 -5.9816 -5.81312 30.24407 81.865 -1.52262 -0.66732 -13.77591 35.37301 -20.12814 41.55409 -89.71274 -7.81175 4.72619 34.68512 -0.41212 -3.97986 -20.21741 -7.64258 -5.37723 -3.55241 40.52613 3.45989 -2.208 -24.05609 -7.13624 3.02848 2.20888
-0.00635 0.00081 0.00599 -57.91222 -31.94127 -0.52128 40.99074 -0.14276 -8.83256 -0.03329 -5.5889 -0.34245 -24.64285 -6.25393 -5.67896 29.98466 82.38923 -1.13798 -0.52807 -13.62767 35.00182 -18.10534 40.02486 -82.73206 -9.19147 3.22245 34.35871 -0.35448 -4.38656 -20.28052 -7.57598 -5.32019 -3.51781 40.12392 3.60471 -1.97455 -24.24579 -7.11926 3.07127 2.23521
-0.00667 0.00024 0.00896 -58.46955 -31.77882 -0.50366 41.17201 -0.11909 -8.46018 -0.58559 -5.44132 -0.34343 -24.18214 -6.52346 -5.55225 29.72293 82.89611 -0.76698 -0.38979 -13.49129 34.64059 -16.10678 38.52232 -75.89651 -10.52773 1.73908 34.02534 -0.29395 -4.80322 -20.34183 -7.50854 -5.26213 -3.48261 39.73127 3.7527 -1.74521 -24.46128 -7.10313 3.11448 2.26178
-0.00697 -0.00032 0.01196 -59.02963 -31.62751 -0.47746 41.37313 -0.10324 -8.0848 -1.1463 -5.29011 -0.34411 -23.73206 -6.79828 -5.41046 29.4658 83.43848 -0.36878 -0.25001 -13.3316 34.25984 -14.06175 36.96795 -68.77866 -11.94933 0.21665 33.70585 -0.23928 -5.19994 -20.40663 -7.44282 -5.20611 -3.44862 39.31858 3.89432 -1.50815 -24.62388 -7.08518 3.15682 2.28786
-0.00728 -0.00088 0.01494 -59.58676 -31.46672 -0.45899 41.55627 -0.0802 -7.71185 -1.69873 -5.14216 -0.34507 -23.27249 -7.06831 -5.283 29.20508 83.94603 0.00407 -0.11106 -13.19267 33.8969 -12.05938 35.46098 -61.91713 -13.29338 -1.27029 33.37446 -0.17925 -5.61401 -20.46832 -7.37561 -5.14834 -3.4136 38.92663 4.04151 -1.27764 -24.83665 -7.06917 3.19991 2.31438
-0.00761 -0.00146 0.0179 -60.14228 -31.29096 -0.45079 41.71601 -0.04816 -7.34299 -2.24338 -4.9985 -0.34636 -22.79967 -7.33224 -5.17148 28.93713 84.41923 0.34688 0.02477 -13.08226 33.5565 -10.10918 34.01318 -55.38396 -14.53785 -2.71224 33.02455 -0.1124 -6.05393 -20.5258 -7.30613 -5.08786 -3.37694 38.55105 4.19688 -1.05737 -25.10602 -7.05449 3.24419 2.34152
-0.00786 -0.00196 0.02098 -60.71307 -31.19114 -0.38597 42.00611 -0.06723 -6.95396 -2.83984 -4.83109 -0.34574 -22.39808 -7.63056 -4.9635 28.70225 85.1147 0.86536 0.1722 -12.81722 33.08873 -7.85886 32.22861 -47.00677 -16.34082 -4.40822 32.76924 -0.08396 -6.35914 -20.60625 -7.24833 -5.04124 -3.34859 38.05426 4.30931 -0.78487 -25.03562 -7.02901 3.28244 2.36535
-0.00826 -0.00262 0.0238 -61.2477 -30.93773 -0.43897 42.02402 0.02103 -6.60539 -3.32246 -4.71321 -0.34914 -21.84956 -7.85675 -4.96199 28.40313 85.32567 1.01153 0.29921 -12.87223 32.88815 -6.24177 31.15217 -42.49048 -16.97511 -5.57131 32.32213 0.02491 -6.93933 -20.63905 -7.16682 -4.96653 -3.30341 37.83039 4.50966 -0.6183 -25.69063 -7.02834 3.33285 2.39596
-0.00911 -0.00373 0.02591 -61.71482 -30.20394 -0.83141 41.26414 0.41036 -6.38593 -3.52747 -4.73721 -0.36365 -20.86657 -7.88054 -5.50469 27.88108 84.32478 0.13994 0.33532 -13.86671 33.44024 -6.37794 32.0577 -48.913 -14.29319 -5.23105 31.27831 0.36107 -8.35934 -20.53269 -7.01165 -4.80414 -3.20568 38.21918 4.97495 -0.77977 -28.27984 -7.07913 3.42159 2.44696
-0.01009 -0.00499 0.02776 -62.13976 -29.32677 -1.3387 40.23694 0.90582 -6.20388 -3.61214 -4.80987 -0.38217 -19.74247 -7.83335 -6.25605 27.30382 82.81831 -1.10573 0.35648 -15.17213 34.25651 -7.14624 33.66681 -59.14427 -10.46008 -4.36234 30.05443 0.77618 -10.04034 -20.37977 -6.83422 -4.61544 -3.09219 38.90513 5.52352 -1.04039 -31.60276 -7.15744 3.52162 2.50442
-0.01097 -0.00617 0.02971 -62.56329 -28.55378 -1.78352 39.35186 1.34898 -5.99268 -3.72866 -4.85636 -0.3988 -18.70252 -7.82077 -6.93011 26.78141 81.46281 -2.18345 0.40846 -16.29414 34.93987 -7.61608 34.92902 -67.41352 -7.22241 -3.76353 28.95956 1.1516 -11.54544 -20.25395 -6.6726 -4.44578 -2.99012 39.54681 6.01933 -1.23165 -34.63347 -7.23462 3.61324 2.55779
-0.01201 -0.00742 0.03171 -63.0736 -27.61609 -2.27388 38.37795 1.8113 -5.83221 -3.93969 -4.92 -0.41578 -17.57505 -7.79557 -7.54215 26.13051 80.42752 -3.25542 0.36283 -17.59081 35.68022 -8.13778 36.30855 -76.68423 -3.66864 -3.04208 27.66721 1.54567 -13.29028 -20.10401 -6.487 -4.24641 -2.8702 39.81474 6.58084 -1.52693 -37.5131 -7.26579 3.71869 2.61615
-0.01276 -0.00855 0.03355 -63.39318 -26.98709 -2.69416 37.52717 2.25665 -5.57572 -3.92746 -4.95956 -0.4329 -16.59983 -7.78301 -8.31835 25.73761 78.61973 -4.42534 0.51214 -18.60204 36.36174 -8.69711 37.60892 -84.74917 -0.51125 -2.44581 26.74089 1.91659 -14.60097 -19.99196 -6.34597 -4.10236 -2.78352 40.92044 7.022 -1.62752 -40.85437 -7.39687 3.79804 2.66553
-0.01274 -0.00932 0.0349 -63.19633 -27.2494 -2.91329 37.0705 2.64773 -5.0383 -3.31072 -4.92019 -0.4501 -16.05109 -7.797 -9.61697 26.04174 74.69247 -5.79099 1.24312 -18.70813 36.83893 -9.24095 38.52919 -88.73991 1.36114 -2.37198 26.89194 2.23005 -14.61787 -20.00709 -6.33463 -4.12072 -2.79446 44.35935 7.13806 -1.17964 -45.51488 -7.81783 3.80229 2.68951
-0.0124 -0.00996 0.03611 -62.80913 -27.8265 -3.05409 36.74932 3.01456 -4.4043 -2.4771 -4.85539 -0.46719 -15.66587 -7.83178 -11.04901 26.61307 70.03367 -7.2356 2.16225 -18.52401 37.24373 -9.79525 39.34313 -91.35554 2.7795 -2.43549 27.41288 2.51282 -14.19364 -20.05973 -6.36877 -4.19513 -2.83907 48.61203 7.12504 -0.53044 -50.56958 -8.33444 3.77997 2.70408
-0.01217 -0.01063 0.03743 -62.50896 -28.2572 -3.21723 36.37342 3.38032 -3.81869 -1.75382 -4.80209 -0.48391 -15.22439 -7.87293 -12.3437 27.08074 65.7723 -8.63727 2.97058 -18.49918 37.66632 -10.31988 40.19874 -94.46893 4.34295 -2.40283 27.75037 2.79248 -13.99288 -20.08806 -6.38126 -4.24167 -2.8669 52.43354 7.15285 0.03614 -55.30044 -8.79373 3.76993 2.72229
-0.01214 -0.01142 0.03854 -62.20458 -28.69761 -3.4402 35.95863 3.80091 -3.2149 -0.97516 -4.74914 -0.50255 -14.70147 -7.8416 -13.97804 27.4705 61.1872 -10.09591 3.88972 -18.36857 38.16084 -10.96684 41.1077 -98.22735 6.19685 -2.48676 28.14855 3.1462 -13.70798 -20.14604 -6.39688 -4.29712 -2.90022 56.53144 7.25844 0.56411 -60.6801 -9.31272 3.75924 2.74332
-0.0116 -0.01193 0.04008 -61.86497 -29.19363 -3.51867 35.66127 4.10006 -2.62618 -0.26374 -4.69077 -0.51711 -14.38921 -7.97117 -14.92325 28.0879 57.14904 -11.43208 4.61721 -18.38652 38.48624 -11.35948 41.87028 -100.29732 7.33342 -2.37671 28.50781 3.33821 -13.48538 -20.15103 -6.41737 -4.34804 -2.93055 60.23422 7.1708 1.21868 -64.77707 -9.72941 3.74369 2.75628
-0.00982 -0.01174 0.04276 -61.46918 -29.77365 -3.21539 35.6502 4.07023 -2.09799 0.22377 -4.60582 -0.52031 -14.61553 -8.50137 -14.03303 29.25627 54.43993 -12.56867 4.82303 -18.87397 38.34808 -10.98829 42.25749 -97.7587 6.5062 -1.61905 28.69235 3.08366 -13.58269 -20.0068 -6.43796 -4.36981 -2.94245 62.72034 6.57714 2.20067 -65.3651 -9.84229 3.71883 2.74811
-0.00753 -0.01128 0.04591 -61.04574 -30.39794 -2.76966 35.75498 3.91865 -1.58948 0.63255 -4.51887 -0.51942 -15.04886 -9.19733 -12.43234 30.64518 52.36061 -13.55386 4.82282 -19.52164 38.04266 -10.36706 42.49663 -93.60576 4.9859 -0.67831 28.82102 2.66879 -13.74935 -19.80686 -6.46247 -4.38577 -2.95062 64.7653 5.79455 3.29946 -64.62276 -9.84815 3.69026 2.73225
-0.00542 -0.01095 0.04891 -60.6388 -30.99796 -2.38918 35.81117 3.82164 -1.07426 1.06737 -4.44492 -0.52048 -15.39096 -9.84689 -11.08081 31.94383 50.25163 -14.49536 4.8777 -20.10201 37.82297 -9.89776 42.79857 -90.35305 3.83699 0.12404 28.96161 2.33137 -13.85649 -19.62876 -6.48672 -4.40646 -2.96186 66.96279 5.09973 4.32641 -64.39834 -9.90182 3.66507 2.72075
-0.00351 -0.01058 0.05163 -60.20863 -31.627 -2.00186 35.85446 3.726 -0.54427 1.5519 -4.32116 -0.52117 -15.72925 -10.38736 -10.01487 33.21744 47.09809 -15.89035 5.08837 -20.64893 37.56353 -9.27394 43.11763 -86.33557 2.42906 1.15322 29.17398 1.972 -14.06581 -19.46727 -6.50596 -4.42026 -2.96847 69.39217 4.38934 5.43587 -64.54587 -9.96332 3.63236 2.70559
-0.00106 -0.01023 0.05504 -59.82269 -32.20126 -1.59852 35.95078 3.6002 -0.05347 1.91016 -4.29838 -0.52164 -16.11927 -11.17865 -8.22176 34.5824 46.1986 -16.33441 4.94005 -21.30761 37.3435 -8.90436 43.36538 -83.56501 1.40901 1.75729 29.21612 1.6226 -14.08553 -19.25663 -6.53619 -4.44633 -2.9834 71.2221 3.67201 6.40317 -63.60783 -9.9806 3.61409 2.69594
0.00272 -0.00998 0.06015 -59.56664 -32.61858 -1.1637 36.16215 3.4093 0.35447 1.94786 -4.57738 -0.52256 -16.6304 -12.75828 -4.25811 36.22921 52.09336 -13.91693 3.69981 -22.23413 37.31284 -9.36732 43.46755 -84.438 1.55984 1.1273 28.82218 1.32314 -13.55874 -18.93021 -6.59391 -4.50701 -3.02189 71.50755 2.94819 6.90722 -59.90749 -9.91286 3.64286 2.70712
0.00705 -0.00977 0.06595 -59.35635 -32.97661 -0.72197 36.42293 3.19427 0.71917 1.85854 -4.95405 -0.52338 -17.18136 -14.5614 0.35634 37.9444 60.1216 -10.5924 2.1289 -23.26908 37.32093 -10.08284 43.50099 -86.64669 2.13413 0.069 28.25269 1.04226 -12.84297 -18.55443 -6.66284 -4.57998 -3.06874 71.19958 2.22999 7.26954 -55.17719 -9.80232 3.68536 2.72353
0.01118 -0.00958 0.07149 -59.12607 -33.35695 -0.29852 36.66229 2.99832 1.08985 1.82034 -5.27135 -0.52421 -17.69284 -16.1697 4.44573 39.57088 66.67873 -7.86881 0.81225 -24.25719 37.28516 -10.63571 43.5561 -88.40057 2.57007 -0.78542 27.74905 0.76437 -12.21874 -18.19749 -6.72746 -4.6476 -3.11186 71.15817 1.53288 7.72523 -50.97313 -9.70304 3.71751 2.73504
0.01511 -0.00925 0.07681 -58.89332 -33.75899 0.19303 36.90092 2.76486 1.51817 1.80701 -5.65162 -0.52508 -18.29722 -18.16784 9.5047 41.44448 75.29974 -4.36679 -0.93508 -25.24149 37.35281 -11.37732 43.64522 -89.52757 2.77778 -1.68205 27.30462 0.43369 -11.56911 -17.85565 -6.78829 -4.71447 -3.15474 71.11799 0.73258 8.06893 -46.46969 -9.63246 3.76649 2.75663
